<svg xmlns="http://www.w3.org/2000/svg" xmlns:xlink="http://www.w3.org/1999/xlink" width="1500" zoomAndPan="magnify" viewBox="0 0 1125 1124.99995" height="1500" preserveAspectRatio="xMidYMid meet" version="1.2"><defs><clipPath id="b89febde11"><path d="M 92.835938 49.269531 L 1012.335938 49.269531 L 1012.335938 874 L 92.835938 874 Z M 92.835938 49.269531 "/></clipPath></defs><g id="83896aab52"><rect x="0" width="1125" y="0" height="1124.99995" style="fill:#ffffff;fill-opacity:1;stroke:none;"/><rect x="0" width="1125" y="0" height="1124.99995" style="fill:#008c9e;fill-opacity:1;stroke:none;"/><g style="fill:#ffffff;fill-opacity:1;"><g transform="translate(296.216249, 1001.717246)"><path style="stroke:none" d="M 47.515625 1.4375 C 39.117188 1.4375 31.78125 -0.398438 25.5 -4.078125 C 19.21875 -7.753906 14.296875 -12.851562 10.734375 -19.375 C 7.179688 -25.894531 5.40625 -33.4375 5.40625 -42 C 5.40625 -50.5625 7.179688 -58.101562 10.734375 -64.625 C 14.296875 -71.144531 19.21875 -76.242188 25.5 -79.921875 C 31.78125 -83.597656 39.117188 -85.4375 47.515625 -85.4375 C 55.835938 -85.4375 63.15625 -83.597656 69.46875 -79.921875 C 75.789062 -76.242188 80.710938 -71.144531 84.234375 -64.625 C 87.753906 -58.101562 89.515625 -50.5625 89.515625 -42 C 89.515625 -34 87.953125 -26.859375 84.828125 -20.578125 C 81.710938 -14.296875 77.394531 -9.316406 71.875 -5.640625 L 91.3125 15.234375 L 72.234375 15.234375 L 59.046875 0.125 C 55.359375 1 51.515625 1.4375 47.515625 1.4375 Z M 47.515625 -12.359375 C 55.515625 -12.359375 61.894531 -15 66.65625 -20.28125 C 71.414062 -25.5625 73.796875 -32.800781 73.796875 -42 C 73.796875 -51.195312 71.414062 -58.4375 66.65625 -63.71875 C 61.894531 -69 55.515625 -71.640625 47.515625 -71.640625 C 39.515625 -71.640625 33.113281 -69 28.3125 -63.71875 C 23.519531 -58.4375 21.125 -51.195312 21.125 -42 C 21.125 -32.800781 23.519531 -25.5625 28.3125 -20.28125 C 33.113281 -15 39.515625 -12.359375 47.515625 -12.359375 Z M 47.515625 -12.359375 "/></g></g><g style="fill:#ffffff;fill-opacity:1;"><g transform="translate(396.896279, 1001.717246)"><path style="stroke:none" d="M 40.5625 1.4375 C 34.394531 1.4375 28.832031 0.21875 23.875 -2.21875 C 18.914062 -4.65625 14.976562 -8.351562 12.0625 -13.3125 C 9.144531 -18.28125 7.6875 -24.5625 7.6875 -32.15625 L 7.6875 -84 L 23.046875 -84 L 23.046875 -32.046875 C 23.046875 -25.484375 24.625 -20.597656 27.78125 -17.390625 C 30.9375 -14.191406 35.316406 -12.59375 40.921875 -12.59375 C 46.441406 -12.59375 50.800781 -14.191406 54 -17.390625 C 57.195312 -20.597656 58.796875 -25.484375 58.796875 -32.046875 L 58.796875 -84 L 74.15625 -84 L 74.15625 -32.15625 C 74.15625 -24.5625 72.632812 -18.28125 69.59375 -13.3125 C 66.5625 -8.351562 62.503906 -4.65625 57.421875 -2.21875 C 52.335938 0.21875 46.71875 1.4375 40.5625 1.4375 Z M 40.5625 1.4375 "/></g></g><g style="fill:#ffffff;fill-opacity:1;"><g transform="translate(484.736302, 1001.717246)"><path style="stroke:none" d="M 2.765625 0 L 33.484375 -84 L 50.765625 -84 L 81.484375 0 L 65.15625 0 L 58.4375 -19.4375 L 25.6875 -19.4375 L 18.84375 0 Z M 29.875 -31.4375 L 54.234375 -31.4375 L 42 -66.359375 Z M 29.875 -31.4375 "/></g></g><g style="fill:#ffffff;fill-opacity:1;"><g transform="translate(574.976334, 1001.717246)"><path style="stroke:none" d="M 8.15625 0 L 8.15625 -84 L 23.515625 -84 L 63 -24.84375 L 63 -84 L 78.359375 -84 L 78.359375 0 L 63 0 L 23.515625 -59.046875 L 23.515625 0 Z M 8.15625 0 "/></g></g><g style="fill:#ffffff;fill-opacity:1;"><g transform="translate(667.616364, 1001.717246)"><path style="stroke:none" d="M 27.71875 0 L 27.71875 -71.640625 L 3.234375 -71.640625 L 3.234375 -84 L 67.6875 -84 L 67.6875 -71.640625 L 43.078125 -71.640625 L 43.078125 0 Z M 27.71875 0 "/></g></g><g style="fill:#ffffff;fill-opacity:1;"><g transform="translate(744.656381, 1001.717246)"><path style="stroke:none" d="M 2.765625 0 L 33.484375 -84 L 50.765625 -84 L 81.484375 0 L 65.15625 0 L 58.4375 -19.4375 L 25.6875 -19.4375 L 18.84375 0 Z M 29.875 -31.4375 L 54.234375 -31.4375 L 42 -66.359375 Z M 29.875 -31.4375 "/></g></g><g clip-rule="nonzero" clip-path="url(#b89febde11)"><path style=" stroke:none;fill-rule:evenodd;fill:#ffffff;fill-opacity:1;" d="M 529.476562 583.972656 L 550.945312 559.59375 C 561.136719 571.964844 575.324219 579.972656 592.0625 582.152344 L 592.0625 702.59375 L 474.898438 769.546875 L 358.09375 837.226562 L 124.492188 702.59375 L 124.492188 432.601562 L 188.894531 395.125 L 188.894531 358.738281 L 92.835938 414.410156 L 92.835938 720.789062 L 358.09375 873.976562 L 623.355469 720.789062 L 623.355469 577.789062 C 646.28125 568.328125 661.925781 545.765625 661.925781 519.570312 C 661.925781 485 633.546875 456.617188 598.976562 456.617188 C 578.601562 456.617188 560.40625 466.078125 548.761719 481 L 526.929688 455.890625 C 542.578125 445.339844 552.402344 428.238281 554.222656 408.953125 L 630.632812 364.558594 L 747.4375 297.242188 L 864.238281 364.558594 L 981.042969 431.875 L 981.042969 701.867188 L 863.875 769.546875 L 747.074219 836.863281 L 630.269531 769.546875 L 612.078125 759.359375 L 580.421875 777.550781 L 747.074219 873.613281 L 1012.335938 720.425781 L 1012.335938 414.046875 L 747.074219 260.855469 L 547.308594 376.203125 C 537.121094 355.464844 515.652344 340.910156 490.90625 340.910156 C 456.339844 340.910156 427.957031 369.289062 427.957031 403.859375 C 427.957031 437.332031 454.519531 465.351562 488.359375 466.808594 L 488.359375 571.238281 C 465.800781 572.328125 446.878906 584.703125 435.964844 603.257812 L 357.367188 557.773438 L 240.566406 490.457031 L 240.566406 220.46875 L 357.367188 153.152344 L 474.171875 85.835938 L 707.773438 220.46875 L 707.773438 259.402344 L 739.429688 241.207031 L 739.429688 202.273438 L 474.535156 49.8125 L 209.273438 203 L 209.273438 509.378906 L 427.957031 636.007812 C 428.324219 670.574219 456.339844 698.59375 490.910156 698.59375 C 525.476562 698.59375 553.859375 670.210938 553.859375 635.644531 C 554.585938 613.8125 544.398438 595.617188 529.476562 583.972656 Z M 547.671875 554.863281 L 525.113281 580.335938 C 516.015625 574.511719 505.828125 571.238281 494.546875 570.875 L 494.546875 466.808594 C 504.734375 466.445312 514.195312 463.53125 522.929688 458.800781 L 546.582031 485.363281 C 540.03125 494.824219 537.121094 506.832031 537.121094 518.839844 C 536.390625 532.667969 540.757812 545.039062 547.671875 554.863281 Z M 547.671875 554.863281 "/></g></g></svg>