<svg xmlns="http://www.w3.org/2000/svg" width="500" zoomAndPan="magnify" viewBox="0 0 375 374.999991" height="500" preserveAspectRatio="xMidYMid meet" version="1.2"><defs><clipPath id="a515c93c35"><path d="M 114 84 L 300 84 L 300 143 L 114 143 Z M 114 84 "/></clipPath><clipPath id="9ba6aefa03"><path d="M 145.820312 24.332031 L 300.097656 84.925781 L 218.9375 291.558594 L 64.660156 230.964844 Z M 145.820312 24.332031 "/></clipPath><clipPath id="a71a115635"><path d="M 145.820312 24.332031 L 300.097656 84.925781 L 218.9375 291.558594 L 64.660156 230.964844 Z M 145.820312 24.332031 "/></clipPath><clipPath id="0455eded68"><path d="M 80 131 L 261 131 L 261 191 L 80 191 Z M 80 131 "/></clipPath><clipPath id="3f71ec0fa7"><path d="M 145.820312 24.332031 L 300.097656 84.925781 L 218.9375 291.558594 L 64.660156 230.964844 Z M 145.820312 24.332031 "/></clipPath><clipPath id="4702b23193"><path d="M 145.820312 24.332031 L 300.097656 84.925781 L 218.9375 291.558594 L 64.660156 230.964844 Z M 145.820312 24.332031 "/></clipPath><clipPath id="057b717e07"><path d="M 77 177 L 264 177 L 264 237 L 77 237 Z M 77 177 "/></clipPath><clipPath id="8cfb1d5e04"><path d="M 145.820312 24.332031 L 300.097656 84.925781 L 218.9375 291.558594 L 64.660156 230.964844 Z M 145.820312 24.332031 "/></clipPath><clipPath id="21ce5eba26"><path d="M 145.820312 24.332031 L 300.097656 84.925781 L 218.9375 291.558594 L 64.660156 230.964844 Z M 145.820312 24.332031 "/></clipPath></defs><g id="7e3290cfb2"><rect x="0" width="375" y="0" height="374.999991" style="fill:#ffffff;fill-opacity:1;stroke:none;"/><rect x="0" width="375" y="0" height="374.999991" style="fill:#ffffff;fill-opacity:1;stroke:none;"/><g clip-rule="nonzero" clip-path="url(#a515c93c35)"><g clip-rule="nonzero" clip-path="url(#9ba6aefa03)"><g clip-rule="nonzero" clip-path="url(#a71a115635)"><path style=" stroke:none;fill-rule:nonzero;fill:#098fd7;fill-opacity:1;" d="M 211.488281 85.726562 C 207.484375 85.769531 203.902344 88.238281 202.4375 91.96875 L 195.828125 108.789062 C 195.308594 110.117188 194.394531 111.25 193.210938 112.039062 C 192.046875 112.816406 190.675781 113.226562 189.277344 113.214844 L 132.742188 112.734375 C 128.738281 112.777344 125.15625 115.246094 123.691406 118.976562 L 114.488281 142.402344 L 175.824219 142.925781 C 179.828125 142.882812 183.410156 140.417969 184.871094 136.6875 L 190.984375 121.125 C 191.515625 119.773438 192.457031 118.621094 193.671875 117.832031 L 195.773438 116.460938 C 196.882812 115.738281 198.175781 115.347656 199.503906 115.332031 L 281.46875 114.449219 C 285.476562 114.40625 289.054688 111.9375 290.519531 108.210938 L 299.722656 84.78125 Z M 211.488281 85.726562 "/></g></g></g><g clip-rule="nonzero" clip-path="url(#0455eded68)"><g clip-rule="nonzero" clip-path="url(#3f71ec0fa7)"><g clip-rule="nonzero" clip-path="url(#4702b23193)"><path style=" stroke:none;fill-rule:nonzero;fill:#098fd7;fill-opacity:1;" d="M 193.316406 131.996094 C 189.308594 132.039062 185.730469 134.507812 184.265625 138.234375 L 177.015625 156.691406 C 176.605469 157.734375 175.886719 158.632812 174.957031 159.265625 C 174.046875 159.886719 172.976562 160.222656 171.875 160.230469 L 98.792969 160.984375 C 94.789062 161.027344 91.207031 163.496094 89.742188 167.226562 L 80.539062 190.652344 L 157.386719 189.863281 C 161.390625 189.820312 164.972656 187.355469 166.4375 183.625 L 172.535156 168.09375 C 172.964844 167.007812 173.71875 166.085938 174.695312 165.453125 L 179.253906 162.496094 C 180.140625 161.921875 181.179688 161.609375 182.238281 161.601562 L 242.308594 161.035156 C 246.316406 160.996094 249.894531 158.527344 251.359375 154.796875 L 260.5625 131.371094 Z M 193.316406 131.996094 "/></g></g></g><g clip-rule="nonzero" clip-path="url(#057b717e07)"><g clip-rule="nonzero" clip-path="url(#8cfb1d5e04)"><g clip-rule="nonzero" clip-path="url(#21ce5eba26)"><path style=" stroke:none;fill-rule:nonzero;fill:#098fd7;fill-opacity:1;" d="M 175.109375 178.351562 C 171.101562 178.394531 167.523438 180.863281 166.058594 184.59375 L 159.03125 202.484375 C 158.507812 203.8125 157.59375 204.945312 156.410156 205.734375 C 155.246094 206.511719 153.875 206.921875 152.480469 206.910156 L 95.941406 206.429688 C 91.9375 206.472656 88.355469 208.941406 86.890625 212.667969 L 77.691406 236.097656 L 139.023438 236.621094 C 143.027344 236.578125 146.609375 234.109375 148.074219 230.378906 L 154.1875 214.816406 C 154.71875 213.464844 155.65625 212.3125 156.871094 211.519531 L 160.636719 209.066406 C 161.75 208.34375 163.042969 207.953125 164.371094 207.9375 L 245.09375 207.070312 C 249.097656 207.027344 252.679688 204.558594 254.144531 200.828125 L 263.34375 177.398438 Z M 175.109375 178.351562 "/></g></g></g><g style="fill:#100833;fill-opacity:1;"><g transform="translate(65.185862, 291.145601)"><path style="stroke:none" d="M 7.40625 -12.953125 C 7.40625 -11.617188 7.535156 -10.375 7.796875 -9.21875 C 8.066406 -8.070312 8.5 -7.070312 9.09375 -6.21875 C 9.695312 -5.375 10.472656 -4.707031 11.421875 -4.21875 C 12.367188 -3.738281 13.507812 -3.5 14.84375 -3.5 C 16.113281 -3.5 17.28125 -3.710938 18.34375 -4.140625 C 19.414062 -4.578125 20.234375 -5.03125 20.796875 -5.5 L 20.796875 -21.90625 C 20.328125 -22.03125 19.703125 -22.144531 18.921875 -22.25 C 18.140625 -22.351562 17.050781 -22.40625 15.65625 -22.40625 C 13.15625 -22.40625 11.15625 -21.585938 9.65625 -19.953125 C 8.15625 -18.316406 7.40625 -15.984375 7.40625 -12.953125 Z M 2.546875 -12.953125 C 2.546875 -15.046875 2.851562 -16.9375 3.46875 -18.625 C 4.09375 -20.3125 4.96875 -21.738281 6.09375 -22.90625 C 7.226562 -24.070312 8.59375 -24.96875 10.1875 -25.59375 C 11.789062 -26.226562 13.59375 -26.546875 15.59375 -26.546875 C 17.757812 -26.546875 19.664062 -26.382812 21.3125 -26.0625 C 22.96875 -25.75 24.347656 -25.460938 25.453125 -25.203125 L 25.453125 9.25 L 20.796875 9.25 L 20.796875 -1.15625 C 20.234375 -0.78125 19.375 -0.394531 18.21875 0 C 17.070312 0.394531 15.75 0.59375 14.25 0.59375 C 12.382812 0.59375 10.722656 0.257812 9.265625 -0.40625 C 7.816406 -1.070312 6.59375 -2.003906 5.59375 -3.203125 C 4.59375 -4.398438 3.832031 -5.832031 3.3125 -7.5 C 2.800781 -9.164062 2.546875 -10.984375 2.546875 -12.953125 Z M 2.546875 -12.953125 "/></g></g><g style="fill:#100833;fill-opacity:1;"><g transform="translate(109.63121, 291.145601)"><path style="stroke:none" d="M 24.703125 -0.75 C 23.628906 -0.476562 22.21875 -0.195312 20.46875 0.09375 C 18.71875 0.394531 16.695312 0.546875 14.40625 0.546875 C 12.40625 0.546875 10.71875 0.253906 9.34375 -0.328125 C 7.976562 -0.910156 6.878906 -1.734375 6.046875 -2.796875 C 5.210938 -3.867188 4.613281 -5.128906 4.25 -6.578125 C 3.882812 -8.023438 3.703125 -9.632812 3.703125 -11.40625 L 3.703125 -26 L 8.34375 -26 L 8.34375 -12.40625 C 8.34375 -9.238281 8.84375 -6.96875 9.84375 -5.59375 C 10.84375 -4.226562 12.53125 -3.546875 14.90625 -3.546875 C 15.40625 -3.546875 15.921875 -3.5625 16.453125 -3.59375 C 16.984375 -3.632812 17.484375 -3.675781 17.953125 -3.71875 C 18.421875 -3.769531 18.84375 -3.820312 19.21875 -3.875 C 19.601562 -3.925781 19.878906 -3.984375 20.046875 -4.046875 L 20.046875 -26 L 24.703125 -26 Z M 24.703125 -0.75 "/></g></g><g style="fill:#100833;fill-opacity:1;"><g transform="translate(153.326672, 291.145601)"><path style="stroke:none" d="M 12.796875 -3.34375 C 13.898438 -3.34375 14.875 -3.367188 15.71875 -3.421875 C 16.570312 -3.472656 17.28125 -3.566406 17.84375 -3.703125 L 17.84375 -11.453125 C 17.507812 -11.617188 16.96875 -11.757812 16.21875 -11.875 C 15.46875 -11.988281 14.5625 -12.046875 13.5 -12.046875 C 12.800781 -12.046875 12.054688 -11.992188 11.265625 -11.890625 C 10.484375 -11.796875 9.769531 -11.585938 9.125 -11.265625 C 8.476562 -10.953125 7.9375 -10.519531 7.5 -9.96875 C 7.0625 -9.425781 6.84375 -8.703125 6.84375 -7.796875 C 6.84375 -6.128906 7.375 -4.96875 8.4375 -4.3125 C 9.507812 -3.664062 10.960938 -3.34375 12.796875 -3.34375 Z M 12.40625 -26.65625 C 14.269531 -26.65625 15.84375 -26.410156 17.125 -25.921875 C 18.40625 -25.441406 19.4375 -24.757812 20.21875 -23.875 C 21.007812 -22.988281 21.570312 -21.9375 21.90625 -20.71875 C 22.238281 -19.507812 22.40625 -18.171875 22.40625 -16.703125 L 22.40625 -0.453125 C 22 -0.378906 21.4375 -0.285156 20.71875 -0.171875 C 20.007812 -0.0546875 19.203125 0.046875 18.296875 0.140625 C 17.398438 0.242188 16.425781 0.335938 15.375 0.421875 C 14.320312 0.503906 13.28125 0.546875 12.25 0.546875 C 10.78125 0.546875 9.425781 0.394531 8.1875 0.09375 C 6.957031 -0.195312 5.894531 -0.664062 5 -1.3125 C 4.101562 -1.96875 3.40625 -2.828125 2.90625 -3.890625 C 2.40625 -4.960938 2.15625 -6.25 2.15625 -7.75 C 2.15625 -9.1875 2.445312 -10.421875 3.03125 -11.453125 C 3.613281 -12.484375 4.40625 -13.316406 5.40625 -13.953125 C 6.40625 -14.585938 7.570312 -15.050781 8.90625 -15.34375 C 10.238281 -15.644531 11.632812 -15.796875 13.09375 -15.796875 C 13.5625 -15.796875 14.046875 -15.769531 14.546875 -15.71875 C 15.046875 -15.675781 15.519531 -15.613281 15.96875 -15.53125 C 16.425781 -15.445312 16.820312 -15.367188 17.15625 -15.296875 C 17.488281 -15.234375 17.71875 -15.1875 17.84375 -15.15625 L 17.84375 -16.453125 C 17.84375 -17.210938 17.757812 -17.96875 17.59375 -18.71875 C 17.425781 -19.46875 17.125 -20.132812 16.6875 -20.71875 C 16.257812 -21.300781 15.671875 -21.769531 14.921875 -22.125 C 14.171875 -22.476562 13.195312 -22.65625 12 -22.65625 C 10.46875 -22.65625 9.125 -22.546875 7.96875 -22.328125 C 6.820312 -22.109375 5.96875 -21.882812 5.40625 -21.65625 L 4.84375 -25.5 C 5.445312 -25.769531 6.445312 -26.03125 7.84375 -26.28125 C 9.25 -26.53125 10.769531 -26.65625 12.40625 -26.65625 Z M 12.40625 -26.65625 "/></g></g><g style="fill:#100833;fill-opacity:1;"><g transform="translate(194.422541, 291.145601)"><path style="stroke:none" d="M 4 -25.25 C 5.0625 -25.519531 6.476562 -25.800781 8.25 -26.09375 C 10.019531 -26.394531 12.050781 -26.546875 14.34375 -26.546875 C 16.414062 -26.546875 18.132812 -26.253906 19.5 -25.671875 C 20.863281 -25.085938 21.953125 -24.269531 22.765625 -23.21875 C 23.585938 -22.175781 24.164062 -20.921875 24.5 -19.453125 C 24.832031 -17.984375 25 -16.363281 25 -14.59375 L 25 0 L 20.34375 0 L 20.34375 -13.59375 C 20.34375 -15.195312 20.234375 -16.566406 20.015625 -17.703125 C 19.804688 -18.835938 19.453125 -19.753906 18.953125 -20.453125 C 18.453125 -21.148438 17.785156 -21.65625 16.953125 -21.96875 C 16.117188 -22.289062 15.082031 -22.453125 13.84375 -22.453125 C 13.34375 -22.453125 12.828125 -22.429688 12.296875 -22.390625 C 11.765625 -22.359375 11.253906 -22.316406 10.765625 -22.265625 C 10.285156 -22.222656 9.851562 -22.164062 9.46875 -22.09375 C 9.09375 -22.03125 8.820312 -21.984375 8.65625 -21.953125 L 8.65625 0 L 4 0 Z M 4 -25.25 "/></g></g><g style="fill:#100833;fill-opacity:1;"><g transform="translate(238.118003, 291.145601)"><path style="stroke:none" d="M 8.34375 -26 L 18.203125 -26 L 18.203125 -22.09375 L 8.34375 -22.09375 L 8.34375 -10.09375 C 8.34375 -8.800781 8.441406 -7.726562 8.640625 -6.875 C 8.847656 -6.019531 9.148438 -5.351562 9.546875 -4.875 C 9.953125 -4.394531 10.453125 -4.050781 11.046875 -3.84375 C 11.648438 -3.644531 12.351562 -3.546875 13.15625 -3.546875 C 14.550781 -3.546875 15.671875 -3.703125 16.515625 -4.015625 C 17.367188 -4.335938 17.960938 -4.566406 18.296875 -4.703125 L 19.203125 -0.84375 C 18.734375 -0.613281 17.914062 -0.328125 16.75 0.015625 C 15.582031 0.367188 14.25 0.546875 12.75 0.546875 C 10.976562 0.546875 9.519531 0.320312 8.375 -0.125 C 7.226562 -0.570312 6.300781 -1.242188 5.59375 -2.140625 C 4.894531 -3.046875 4.40625 -4.15625 4.125 -5.46875 C 3.84375 -6.789062 3.703125 -8.316406 3.703125 -10.046875 L 3.703125 -33.25 L 8.34375 -34.046875 Z M 8.34375 -26 "/></g></g><g style="fill:#100833;fill-opacity:1;"><g transform="translate(273.21481, 291.145601)"><path style="stroke:none" d="M 12.796875 -3.34375 C 13.898438 -3.34375 14.875 -3.367188 15.71875 -3.421875 C 16.570312 -3.472656 17.28125 -3.566406 17.84375 -3.703125 L 17.84375 -11.453125 C 17.507812 -11.617188 16.96875 -11.757812 16.21875 -11.875 C 15.46875 -11.988281 14.5625 -12.046875 13.5 -12.046875 C 12.800781 -12.046875 12.054688 -11.992188 11.265625 -11.890625 C 10.484375 -11.796875 9.769531 -11.585938 9.125 -11.265625 C 8.476562 -10.953125 7.9375 -10.519531 7.5 -9.96875 C 7.0625 -9.425781 6.84375 -8.703125 6.84375 -7.796875 C 6.84375 -6.128906 7.375 -4.96875 8.4375 -4.3125 C 9.507812 -3.664062 10.960938 -3.34375 12.796875 -3.34375 Z M 12.40625 -26.65625 C 14.269531 -26.65625 15.84375 -26.410156 17.125 -25.921875 C 18.40625 -25.441406 19.4375 -24.757812 20.21875 -23.875 C 21.007812 -22.988281 21.570312 -21.9375 21.90625 -20.71875 C 22.238281 -19.507812 22.40625 -18.171875 22.40625 -16.703125 L 22.40625 -0.453125 C 22 -0.378906 21.4375 -0.285156 20.71875 -0.171875 C 20.007812 -0.0546875 19.203125 0.046875 18.296875 0.140625 C 17.398438 0.242188 16.425781 0.335938 15.375 0.421875 C 14.320312 0.503906 13.28125 0.546875 12.25 0.546875 C 10.78125 0.546875 9.425781 0.394531 8.1875 0.09375 C 6.957031 -0.195312 5.894531 -0.664062 5 -1.3125 C 4.101562 -1.96875 3.40625 -2.828125 2.90625 -3.890625 C 2.40625 -4.960938 2.15625 -6.25 2.15625 -7.75 C 2.15625 -9.1875 2.445312 -10.421875 3.03125 -11.453125 C 3.613281 -12.484375 4.40625 -13.316406 5.40625 -13.953125 C 6.40625 -14.585938 7.570312 -15.050781 8.90625 -15.34375 C 10.238281 -15.644531 11.632812 -15.796875 13.09375 -15.796875 C 13.5625 -15.796875 14.046875 -15.769531 14.546875 -15.71875 C 15.046875 -15.675781 15.519531 -15.613281 15.96875 -15.53125 C 16.425781 -15.445312 16.820312 -15.367188 17.15625 -15.296875 C 17.488281 -15.234375 17.71875 -15.1875 17.84375 -15.15625 L 17.84375 -16.453125 C 17.84375 -17.210938 17.757812 -17.96875 17.59375 -18.71875 C 17.425781 -19.46875 17.125 -20.132812 16.6875 -20.71875 C 16.257812 -21.300781 15.671875 -21.769531 14.921875 -22.125 C 14.171875 -22.476562 13.195312 -22.65625 12 -22.65625 C 10.46875 -22.65625 9.125 -22.546875 7.96875 -22.328125 C 6.820312 -22.109375 5.96875 -21.882812 5.40625 -21.65625 L 4.84375 -25.5 C 5.445312 -25.769531 6.445312 -26.03125 7.84375 -26.28125 C 9.25 -26.53125 10.769531 -26.65625 12.40625 -26.65625 Z M 12.40625 -26.65625 "/></g></g><g style="fill:#100833;fill-opacity:1;"><g transform="translate(124.226211, 315.50245)"><path style="stroke:none" d="M 7.640625 -9.640625 L 7.640625 -8.484375 L 4.609375 -8.484375 L 4.609375 0 L 3.25 0 L 3.25 -8.484375 L 0.21875 -8.484375 L 0.21875 -9.640625 Z M 7.640625 -9.640625 "/></g></g><g style="fill:#100833;fill-opacity:1;"><g transform="translate(134.878439, 315.50245)"><path style="stroke:none" d="M 1.203125 0 L 1.203125 -9.640625 L 7.09375 -9.640625 L 7.09375 -8.5 L 2.546875 -8.5 L 2.546875 -5.625 L 6.578125 -5.625 L 6.578125 -4.5 L 2.546875 -4.5 L 2.546875 -1.15625 L 7.4375 -1.15625 L 7.4375 0 Z M 1.203125 0 "/></g></g><g style="fill:#100833;fill-opacity:1;"><g transform="translate(145.614198, 315.50245)"><path style="stroke:none" d="M 5.34375 0.203125 C 4.664062 0.203125 4.046875 0.09375 3.484375 -0.125 C 2.929688 -0.34375 2.457031 -0.664062 2.0625 -1.09375 C 1.664062 -1.519531 1.359375 -2.046875 1.140625 -2.671875 C 0.921875 -3.304688 0.8125 -4.023438 0.8125 -4.828125 C 0.8125 -5.640625 0.929688 -6.359375 1.171875 -6.984375 C 1.421875 -7.609375 1.753906 -8.132812 2.171875 -8.5625 C 2.585938 -8.988281 3.070312 -9.3125 3.625 -9.53125 C 4.1875 -9.757812 4.785156 -9.875 5.421875 -9.875 C 5.816406 -9.875 6.171875 -9.84375 6.484375 -9.78125 C 6.804688 -9.726562 7.085938 -9.664062 7.328125 -9.59375 C 7.566406 -9.519531 7.757812 -9.445312 7.90625 -9.375 C 8.050781 -9.300781 8.15625 -9.242188 8.21875 -9.203125 L 7.828125 -8.09375 C 7.742188 -8.144531 7.617188 -8.203125 7.453125 -8.265625 C 7.296875 -8.328125 7.117188 -8.390625 6.921875 -8.453125 C 6.722656 -8.523438 6.503906 -8.582031 6.265625 -8.625 C 6.035156 -8.664062 5.800781 -8.6875 5.5625 -8.6875 C 5.050781 -8.6875 4.585938 -8.597656 4.171875 -8.421875 C 3.765625 -8.242188 3.414062 -7.988281 3.125 -7.65625 C 2.84375 -7.320312 2.625 -6.914062 2.46875 -6.4375 C 2.3125 -5.957031 2.234375 -5.421875 2.234375 -4.828125 C 2.234375 -4.253906 2.300781 -3.726562 2.4375 -3.25 C 2.570312 -2.78125 2.773438 -2.375 3.046875 -2.03125 C 3.316406 -1.695312 3.648438 -1.4375 4.046875 -1.25 C 4.453125 -1.0625 4.925781 -0.96875 5.46875 -0.96875 C 6.09375 -0.96875 6.609375 -1.03125 7.015625 -1.15625 C 7.421875 -1.289062 7.726562 -1.410156 7.9375 -1.515625 L 8.28125 -0.40625 C 8.21875 -0.351562 8.101562 -0.289062 7.9375 -0.21875 C 7.769531 -0.15625 7.5625 -0.09375 7.3125 -0.03125 C 7.0625 0.03125 6.769531 0.0820312 6.4375 0.125 C 6.101562 0.175781 5.738281 0.203125 5.34375 0.203125 Z M 5.34375 0.203125 "/></g></g><g style="fill:#100833;fill-opacity:1;"><g transform="translate(157.03214, 315.50245)"><path style="stroke:none" d="M 7.265625 -9.640625 L 8.625 -9.640625 L 8.625 0 L 7.265625 0 L 7.265625 -4.453125 L 2.546875 -4.453125 L 2.546875 0 L 1.203125 0 L 1.203125 -9.640625 L 2.546875 -9.640625 L 2.546875 -5.625 L 7.265625 -5.625 Z M 7.265625 -9.640625 "/></g></g><g style="fill:#100833;fill-opacity:1;"><g transform="translate(169.633446, 315.50245)"><path style="stroke:none" d="M 7.8125 0 C 7.601562 -0.34375 7.363281 -0.726562 7.09375 -1.15625 C 6.832031 -1.582031 6.550781 -2.023438 6.25 -2.484375 C 5.945312 -2.941406 5.628906 -3.40625 5.296875 -3.875 C 4.960938 -4.351562 4.632812 -4.8125 4.3125 -5.25 C 3.988281 -5.695312 3.671875 -6.113281 3.359375 -6.5 C 3.054688 -6.894531 2.773438 -7.238281 2.515625 -7.53125 L 2.515625 0 L 1.203125 0 L 1.203125 -9.640625 L 2.265625 -9.640625 C 2.703125 -9.179688 3.164062 -8.640625 3.65625 -8.015625 C 4.15625 -7.398438 4.648438 -6.765625 5.140625 -6.109375 C 5.628906 -5.460938 6.085938 -4.820312 6.515625 -4.1875 C 6.953125 -3.5625 7.316406 -3 7.609375 -2.5 L 7.609375 -9.640625 L 8.9375 -9.640625 L 8.9375 0 Z M 7.8125 0 "/></g></g><g style="fill:#100833;fill-opacity:1;"><g transform="translate(182.554946, 315.50245)"><path style="stroke:none" d="M 0.8125 -4.828125 C 0.8125 -5.648438 0.929688 -6.378906 1.171875 -7.015625 C 1.421875 -7.648438 1.753906 -8.175781 2.171875 -8.59375 C 2.597656 -9.019531 3.09375 -9.335938 3.65625 -9.546875 C 4.21875 -9.765625 4.8125 -9.875 5.4375 -9.875 C 6.0625 -9.875 6.648438 -9.765625 7.203125 -9.546875 C 7.753906 -9.335938 8.238281 -9.019531 8.65625 -8.59375 C 9.070312 -8.175781 9.40625 -7.648438 9.65625 -7.015625 C 9.90625 -6.378906 10.03125 -5.648438 10.03125 -4.828125 C 10.03125 -4.003906 9.90625 -3.273438 9.65625 -2.640625 C 9.40625 -2.015625 9.070312 -1.488281 8.65625 -1.0625 C 8.238281 -0.644531 7.753906 -0.328125 7.203125 -0.109375 C 6.648438 0.0976562 6.0625 0.203125 5.4375 0.203125 C 4.8125 0.203125 4.21875 0.0976562 3.65625 -0.109375 C 3.09375 -0.328125 2.597656 -0.644531 2.171875 -1.0625 C 1.753906 -1.488281 1.421875 -2.015625 1.171875 -2.640625 C 0.929688 -3.273438 0.8125 -4.003906 0.8125 -4.828125 Z M 2.234375 -4.828125 C 2.234375 -4.242188 2.304688 -3.710938 2.453125 -3.234375 C 2.597656 -2.753906 2.804688 -2.347656 3.078125 -2.015625 C 3.359375 -1.679688 3.691406 -1.421875 4.078125 -1.234375 C 4.472656 -1.054688 4.921875 -0.96875 5.421875 -0.96875 C 5.910156 -0.96875 6.347656 -1.054688 6.734375 -1.234375 C 7.128906 -1.421875 7.460938 -1.679688 7.734375 -2.015625 C 8.003906 -2.347656 8.210938 -2.753906 8.359375 -3.234375 C 8.515625 -3.710938 8.59375 -4.242188 8.59375 -4.828125 C 8.59375 -5.410156 8.515625 -5.941406 8.359375 -6.421875 C 8.210938 -6.898438 8.003906 -7.304688 7.734375 -7.640625 C 7.460938 -7.972656 7.128906 -8.226562 6.734375 -8.40625 C 6.347656 -8.59375 5.910156 -8.6875 5.421875 -8.6875 C 4.921875 -8.6875 4.472656 -8.59375 4.078125 -8.40625 C 3.691406 -8.226562 3.359375 -7.972656 3.078125 -7.640625 C 2.804688 -7.304688 2.597656 -6.898438 2.453125 -6.421875 C 2.304688 -5.941406 2.234375 -5.410156 2.234375 -4.828125 Z M 2.234375 -4.828125 "/></g></g><g style="fill:#100833;fill-opacity:1;"><g transform="translate(196.172545, 315.50245)"><path style="stroke:none" d="M 7 -1.171875 L 7 0 L 1.203125 0 L 1.203125 -9.640625 L 2.546875 -9.640625 L 2.546875 -1.171875 Z M 7 -1.171875 "/></g></g><g style="fill:#100833;fill-opacity:1;"><g transform="translate(206.184373, 315.50245)"><path style="stroke:none" d="M 0.8125 -4.828125 C 0.8125 -5.648438 0.929688 -6.378906 1.171875 -7.015625 C 1.421875 -7.648438 1.753906 -8.175781 2.171875 -8.59375 C 2.597656 -9.019531 3.09375 -9.335938 3.65625 -9.546875 C 4.21875 -9.765625 4.8125 -9.875 5.4375 -9.875 C 6.0625 -9.875 6.648438 -9.765625 7.203125 -9.546875 C 7.753906 -9.335938 8.238281 -9.019531 8.65625 -8.59375 C 9.070312 -8.175781 9.40625 -7.648438 9.65625 -7.015625 C 9.90625 -6.378906 10.03125 -5.648438 10.03125 -4.828125 C 10.03125 -4.003906 9.90625 -3.273438 9.65625 -2.640625 C 9.40625 -2.015625 9.070312 -1.488281 8.65625 -1.0625 C 8.238281 -0.644531 7.753906 -0.328125 7.203125 -0.109375 C 6.648438 0.0976562 6.0625 0.203125 5.4375 0.203125 C 4.8125 0.203125 4.21875 0.0976562 3.65625 -0.109375 C 3.09375 -0.328125 2.597656 -0.644531 2.171875 -1.0625 C 1.753906 -1.488281 1.421875 -2.015625 1.171875 -2.640625 C 0.929688 -3.273438 0.8125 -4.003906 0.8125 -4.828125 Z M 2.234375 -4.828125 C 2.234375 -4.242188 2.304688 -3.710938 2.453125 -3.234375 C 2.597656 -2.753906 2.804688 -2.347656 3.078125 -2.015625 C 3.359375 -1.679688 3.691406 -1.421875 4.078125 -1.234375 C 4.472656 -1.054688 4.921875 -0.96875 5.421875 -0.96875 C 5.910156 -0.96875 6.347656 -1.054688 6.734375 -1.234375 C 7.128906 -1.421875 7.460938 -1.679688 7.734375 -2.015625 C 8.003906 -2.347656 8.210938 -2.753906 8.359375 -3.234375 C 8.515625 -3.710938 8.59375 -4.242188 8.59375 -4.828125 C 8.59375 -5.410156 8.515625 -5.941406 8.359375 -6.421875 C 8.210938 -6.898438 8.003906 -7.304688 7.734375 -7.640625 C 7.460938 -7.972656 7.128906 -8.226562 6.734375 -8.40625 C 6.347656 -8.59375 5.910156 -8.6875 5.421875 -8.6875 C 4.921875 -8.6875 4.472656 -8.59375 4.078125 -8.40625 C 3.691406 -8.226562 3.359375 -7.972656 3.078125 -7.640625 C 2.804688 -7.304688 2.597656 -6.898438 2.453125 -6.421875 C 2.304688 -5.941406 2.234375 -5.410156 2.234375 -4.828125 Z M 2.234375 -4.828125 "/></g></g><g style="fill:#100833;fill-opacity:1;"><g transform="translate(219.801972, 315.50245)"><path style="stroke:none" d="M 7.09375 -4.75 L 8.4375 -4.75 L 8.4375 -0.234375 C 8.320312 -0.203125 8.160156 -0.160156 7.953125 -0.109375 C 7.742188 -0.0664062 7.503906 -0.0234375 7.234375 0.015625 C 6.960938 0.0664062 6.660156 0.109375 6.328125 0.140625 C 6.003906 0.171875 5.675781 0.1875 5.34375 0.1875 C 4.664062 0.1875 4.046875 0.078125 3.484375 -0.140625 C 2.929688 -0.359375 2.457031 -0.679688 2.0625 -1.109375 C 1.664062 -1.535156 1.359375 -2.0625 1.140625 -2.6875 C 0.921875 -3.3125 0.8125 -4.023438 0.8125 -4.828125 C 0.8125 -5.640625 0.929688 -6.359375 1.171875 -6.984375 C 1.421875 -7.609375 1.753906 -8.132812 2.171875 -8.5625 C 2.585938 -8.988281 3.078125 -9.3125 3.640625 -9.53125 C 4.203125 -9.757812 4.800781 -9.875 5.4375 -9.875 C 5.875 -9.875 6.257812 -9.84375 6.59375 -9.78125 C 6.9375 -9.726562 7.226562 -9.664062 7.46875 -9.59375 C 7.71875 -9.519531 7.914062 -9.445312 8.0625 -9.375 C 8.21875 -9.300781 8.320312 -9.242188 8.375 -9.203125 L 7.953125 -8.078125 C 7.679688 -8.253906 7.320312 -8.398438 6.875 -8.515625 C 6.425781 -8.628906 5.972656 -8.6875 5.515625 -8.6875 C 5.023438 -8.6875 4.578125 -8.597656 4.171875 -8.421875 C 3.765625 -8.242188 3.421875 -7.988281 3.140625 -7.65625 C 2.859375 -7.320312 2.632812 -6.914062 2.46875 -6.4375 C 2.3125 -5.957031 2.234375 -5.421875 2.234375 -4.828125 C 2.234375 -4.253906 2.300781 -3.726562 2.4375 -3.25 C 2.570312 -2.78125 2.773438 -2.375 3.046875 -2.03125 C 3.328125 -1.695312 3.664062 -1.4375 4.0625 -1.25 C 4.46875 -1.0625 4.945312 -0.96875 5.5 -0.96875 C 5.882812 -0.96875 6.210938 -0.988281 6.484375 -1.03125 C 6.765625 -1.070312 6.96875 -1.113281 7.09375 -1.15625 Z M 7.09375 -4.75 "/></g></g><g style="fill:#100833;fill-opacity:1;"><g transform="translate(231.943855, 315.50245)"><path style="stroke:none" d="M 3.5 0 L 3.5 -3.875 C 2.851562 -4.863281 2.242188 -5.835938 1.671875 -6.796875 C 1.109375 -7.765625 0.578125 -8.710938 0.078125 -9.640625 L 1.671875 -9.640625 C 2.023438 -8.878906 2.421875 -8.109375 2.859375 -7.328125 C 3.296875 -6.546875 3.742188 -5.789062 4.203125 -5.0625 C 4.660156 -5.789062 5.101562 -6.546875 5.53125 -7.328125 C 5.96875 -8.109375 6.367188 -8.878906 6.734375 -9.640625 L 8.234375 -9.640625 C 7.734375 -8.710938 7.203125 -7.769531 6.640625 -6.8125 C 6.078125 -5.851562 5.476562 -4.878906 4.84375 -3.890625 L 4.84375 0 Z M 3.5 0 "/></g></g></g></svg>